<?xml version="1.0" encoding="utf-8"?>
<!-- Generator: Adobe Illustrator 24.0.3, SVG Export Plug-In . SVG Version: 6.00 Build 0)  -->
<!DOCTYPE svg PUBLIC "-//W3C//DTD SVG 1.1//EN" "http://www.w3.org/Graphics/SVG/1.1/DTD/svg11.dtd" [
	<!ENTITY ns_extend "http://ns.adobe.com/Extensibility/1.0/">
	<!ENTITY ns_ai "http://ns.adobe.com/AdobeIllustrator/10.0/">
	<!ENTITY ns_graphs "http://ns.adobe.com/Graphs/1.0/">
	<!ENTITY ns_vars "http://ns.adobe.com/Variables/1.0/">
	<!ENTITY ns_imrep "http://ns.adobe.com/ImageReplacement/1.0/">
	<!ENTITY ns_sfw "http://ns.adobe.com/SaveForWeb/1.0/">
	<!ENTITY ns_custom "http://ns.adobe.com/GenericCustomNamespace/1.0/">
	<!ENTITY ns_adobe_xpath "http://ns.adobe.com/XPath/1.0/">
]>
<svg version="1.1" id="Ebene_1" xmlns:x="&ns_extend;" xmlns:i="&ns_ai;" xmlns:graph="&ns_graphs;"
	 xmlns="http://www.w3.org/2000/svg" xmlns:xlink="http://www.w3.org/1999/xlink" x="0px" y="0px" width="236px" height="125.1px"
	 viewBox="0 0 236 125.1" style="enable-background:new 0 0 236 125.1;" xml:space="preserve">
<metadata>
	<sfw  xmlns="&ns_sfw;">
		<slices></slices>
		<sliceSourceBounds  bottomLeftOrigin="true" height="125.1" width="236" x="179.7" y="-486.1"></sliceSourceBounds>
	</sfw>
</metadata>
<g>
	<path d="M37.6,23.5L116,61.7c0.6,0.3,1.3,0.5,2,0.5s1.3-0.2,2-0.5l78.5-38.2c1.6-0.8,2.6-2.4,2.5-4.2c-0.1-1.8-1.2-3.4-2.9-4
		C145-5.1,91.1-5.1,37.9,15.3c-1.7,0.6-2.8,2.2-2.9,4C35,21.1,36,22.8,37.6,23.5z"/>
	<path d="M194.5,53.6L118,90.8L41.5,53.6c-2.2-1.1-4.9-0.2-6,2.1c-1.1,2.2-0.2,4.9,2.1,6L116,99.8c0.6,0.3,1.3,0.5,2,0.5
		s1.3-0.2,2-0.5l78.5-38.2c2.2-1.1,3.2-3.8,2.1-6C199.5,53.4,196.8,52.5,194.5,53.6z"/>
	<path d="M199.7,35.8C199.6,35.8,199.6,35.8,199.7,35.8c-0.2-0.1-0.3-0.1-0.4-0.1c-0.1,0-0.2,0-0.2-0.1c-0.1,0-0.2,0-0.3,0
		c-0.1,0-0.2,0-0.3,0c-0.1,0-0.2,0-0.3,0c-0.1,0-0.2,0-0.3,0c-0.1,0-0.2,0.1-0.3,0.1c-0.1,0-0.2,0.1-0.3,0.1c-0.1,0-0.2,0.1-0.3,0.1
		c-0.1,0.1-0.2,0.1-0.3,0.2c0,0,0,0-0.1,0l-16.5,12.3l-13.6-3.2c-1.1-0.2-2.2,0.1-2.9,0.9l-15,17.1l-14-2.3
		c-0.8-0.1-1.7,0.1-2.3,0.6L117.8,73l-14.2-11c-0.6-0.5-1.5-0.7-2.3-0.6l-14.3,2L72.3,46.2c-0.7-0.8-1.9-1.2-2.9-1l-13.8,3.2
		L39.3,36.2c0,0,0,0-0.1,0C39.2,36.1,39.1,36,39,36c-0.1,0-0.2-0.1-0.2-0.1c-0.1,0-0.2-0.1-0.3-0.1c-0.1,0-0.2-0.1-0.3-0.1
		c-0.1,0-0.2,0-0.3,0c-0.1,0-0.2,0-0.3,0c-0.1,0-0.2,0-0.3,0c-0.1,0-0.2,0-0.3,0c-0.1,0-0.2,0-0.3,0.1c-0.1,0-0.2,0.1-0.3,0.1
		c0,0-0.1,0-0.1,0C12.9,45.5,0,58.9,0,73.4c0,29,51.8,51.7,118,51.7s118-22.7,118-51.7C236,58.9,223.1,45.5,199.7,35.8z M198.2,105
		c-21.4,9-49.8,14-80.2,14c-30.3,0-58.8-5-80.2-14C17.6,96.5,6,84.9,6,73.4C6,61.9,17.3,50.5,37.1,42l16,12c0.7,0.5,1.6,0.7,2.5,0.5
		L69,51.5l14.6,17c0.7,0.8,1.7,1.2,2.7,1l14.6-2.1l14.4,11.2c0,0,0,0,0,0c0.6,0.8,1.5,1.2,2.4,1.2c0.2,0,0.5,0,0.7-0.1
		c0.1,0,0.1,0,0.2,0c0,0,0.1,0,0.1,0c0.5-0.2,0.9-0.4,1.3-0.8l15-11.6l14.4,2.3c1,0.2,2.1-0.2,2.7-1l14.9-17l13.2,3.1
		c0.9,0.2,1.8,0,2.5-0.5L198.9,42c19.8,8.5,31.1,19.9,31.1,31.4C230,84.9,218.4,96.5,198.2,105z"/>
</g>
</svg>
