<?xml version="1.0" encoding="utf-8"?>
<!-- Generator: Adobe Illustrator 24.0.3, SVG Export Plug-In . SVG Version: 6.00 Build 0)  -->
<!DOCTYPE svg PUBLIC "-//W3C//DTD SVG 1.1//EN" "http://www.w3.org/Graphics/SVG/1.1/DTD/svg11.dtd" [
	<!ENTITY ns_extend "http://ns.adobe.com/Extensibility/1.0/">
	<!ENTITY ns_ai "http://ns.adobe.com/AdobeIllustrator/10.0/">
	<!ENTITY ns_graphs "http://ns.adobe.com/Graphs/1.0/">
	<!ENTITY ns_vars "http://ns.adobe.com/Variables/1.0/">
	<!ENTITY ns_imrep "http://ns.adobe.com/ImageReplacement/1.0/">
	<!ENTITY ns_sfw "http://ns.adobe.com/SaveForWeb/1.0/">
	<!ENTITY ns_custom "http://ns.adobe.com/GenericCustomNamespace/1.0/">
	<!ENTITY ns_adobe_xpath "http://ns.adobe.com/XPath/1.0/">
]>
<svg version="1.1" id="Ebene_1" xmlns:x="&ns_extend;" xmlns:i="&ns_ai;" xmlns:graph="&ns_graphs;"
	 xmlns="http://www.w3.org/2000/svg" xmlns:xlink="http://www.w3.org/1999/xlink" x="0px" y="0px" width="214px" height="14px"
	 viewBox="0 0 214 14" style="enable-background:new 0 0 214 14;" xml:space="preserve">
<style type="text/css">
	.st0{fill-rule:evenodd;clip-rule:evenodd;fill:#AAAAAA;}
	.st1{fill-rule:evenodd;clip-rule:evenodd;fill:#FFFFFF;}
</style>
<metadata>
	<sfw  xmlns="&ns_sfw;">
		<slices></slices>
		<sliceSourceBounds  bottomLeftOrigin="true" height="14" width="214" x="2.1" y="-27.8"></sliceSourceBounds>
	</sfw>
</metadata>
<g id="ripped">
	<path class="st0" d="M212.9,13.3c-0.3-0.1-0.9-0.1-1.2-0.2c-0.1,0-1-0.2-1.1-0.2c-0.3,0-0.6,0-0.9-0.1c-0.2,0-0.4-0.1-0.5,0
		c-0.5,0.1-1,0.3-1.5,0.1h-0.1c-0.4,0.2-0.8,0-1.1,0.1c-0.1,0-0.2,0-0.3-0.1c-0.2-0.1-0.3-0.1-0.5-0.2c-0.2-0.1-0.4-0.1-0.6-0.3
		c-0.2-0.2-0.4-0.3-0.7-0.2s-0.5,0.1-0.8,0.1c-0.5,0.1-1.1-0.2-1.6-0.1c-0.4,0.1-0.9,0-1.4,0.2c-0.2,0.1-0.5,0.2-0.8,0.1
		c-0.2-0.1-0.3,0-0.4,0.1c-0.1,0.1-0.3,0.3-0.6,0.2c-0.3,0-0.7,0-1,0.1c-0.2,0-0.4,0-0.6-0.1c-0.3-0.1-0.7-0.1-1.1-0.1
		c-0.2,0-0.4,0.1-0.6,0.2c-0.2,0-0.4,0-0.6,0.2c-0.1,0.1-0.2,0.1-0.3,0.1c-0.4-0.1-0.7-0.1-1,0.2c-0.4-0.4-0.4-0.4-0.9-0.4
		c-0.1,0-0.1,0-0.2,0c-0.2-0.1-0.4,0-0.6,0c-0.4,0.1-0.9,0.3-1.3,0.4c-0.4,0.1-0.8,0-1.2,0.1c-0.3,0.1-0.6,0.1-0.9,0.1
		c-0.2,0.1-0.5,0.1-0.7,0c-0.4-0.2-0.8-0.1-1.1,0c-0.3,0.2-0.6,0.2-1,0.1c-0.5-0.1-1.1-0.1-1.6,0.2c0,0-0.1,0.1-0.2,0
		c-0.3,0-0.7-0.1-1-0.1c-0.4-0.1-0.8-0.2-1.1-0.3s-0.6-0.1-1-0.2c-0.2,0-0.3-0.1-0.5-0.1c-0.4-0.1-0.9-0.3-1.3-0.3
		c-0.4,0-0.8,0.2-1.2,0h-0.1c-0.4,0.3-0.9,0.2-1.4,0.2c-0.1,0-0.3,0-0.4-0.1c-0.2-0.1-0.4-0.1-0.6,0c-0.4,0.1-0.8,0.3-1.3,0.1
		c-0.2-0.1-0.4,0-0.5,0c-0.3,0-0.6,0.1-0.9,0.1c-0.4,0-0.9-0.1-1.3-0.2c-0.1,0-0.2,0-0.3,0.1c-0.2,0.1-0.5,0.2-0.7,0.2
		c-0.4,0-0.8-0.2-1.1-0.3c-0.2-0.1-0.3-0.1-0.4,0c-0.5,0.2-1,0-1.5,0c-0.1,0-0.1-0.1-0.2-0.1c-0.3-0.1-0.6-0.2-0.8-0.1
		c-0.3,0-0.6-0.1-0.8-0.1c-0.3-0.1-0.7-0.2-1-0.3s-0.7-0.2-1-0.2s-0.6,0-1-0.2c-0.1,0-0.2-0.1-0.3-0.1c-0.3,0.1-0.6-0.1-0.8-0.3
		s-0.3-0.2-0.5-0.1c-0.3,0.1-0.5,0.1-0.8,0s-0.6-0.2-0.9,0H159c-0.2,0-0.5,0-0.7,0c-0.3-0.3-0.6-0.4-1.1-0.4c-0.2,0-0.5,0-0.7,0
		c-0.4,0-0.7-0.1-1.1-0.1c-0.5,0.1-1,0-1.5-0.1c-0.2,0-0.3-0.1-0.5-0.1c-0.4-0.1-0.8-0.1-1.2-0.2c-0.2,0-0.5-0.1-0.7-0.1
		c-0.3,0-0.5,0-0.8,0s-0.6,0-0.9,0.2c-0.2,0.1-0.4,0.1-0.6,0.2c-0.3,0.1-0.6,0.1-0.9,0.2c-0.2,0.1-0.4,0.1-0.7,0.1
		c-0.2-0.1-0.5-0.1-0.7-0.2c-0.1,0-0.2,0-0.3,0c-0.4,0.1-0.9,0.1-1.3,0.2c-0.4,0.1-0.9,0.1-1.3,0.4c-0.2,0.1-0.4,0.2-0.7,0.1
		c-0.2-0.1-0.4,0-0.5,0.2c-0.2,0.4-0.5,0.4-0.8,0.4c-0.1,0-0.3,0-0.4,0c-0.5,0-0.9,0.1-1.4,0.2c-0.1,0-0.2,0-0.3,0
		c-0.5-0.1-0.9-0.2-1.4,0.1c-0.2,0.2-0.5,0.2-0.8,0.3c-0.7,0.1-1.5,0.1-2.2,0.2c-0.2,0-0.4,0-0.7-0.1c-0.1-0.1-0.3-0.1-0.5-0.1
		c-0.3,0-0.6,0.1-0.8,0.1c-0.3,0-0.7,0.1-0.8-0.4c0-0.2-0.6-0.4-0.8-0.3c-0.7,0.4-1.4,0.3-2.1,0.1c-0.5-0.2-0.9-0.2-1.4-0.2
		s-1,0.1-1.5,0.3h-0.1c0-0.1-0.1-0.2-0.1-0.3c-0.4-0.1-0.8-0.4-1.2,0l0,0c-0.3,0.1-0.6,0.1-0.8,0.2c-0.1,0-0.2,0-0.3,0
		c-0.2-0.2-0.4-0.1-0.7-0.1c-0.3,0-0.7,0.1-1,0c-0.5-0.2-0.9-0.2-1.4-0.4c-0.4-0.1-0.8-0.2-1.2-0.1c-0.3,0-0.7-0.1-1,0.1
		c-0.1,0-0.2,0-0.3,0c-0.3,0-0.7,0-1,0.1s-0.5,0.1-0.7,0c-0.4-0.1-0.9-0.2-1.3,0.1c-0.1,0.1-0.3,0.1-0.5,0c-0.2,0-0.5-0.1-0.7,0.1
		c-0.4,0.3-0.8,0-1.1-0.1c-0.2-0.1-0.5-0.3-0.7-0.5c0-0.3-0.1-0.4-0.5-0.4s-0.9,0-1.3-0.1c-0.3-0.1-0.5-0.3-0.9-0.3
		c-0.6-0.1-1.2-0.2-1.7-0.5c0,0,0,0-0.1,0l0,0c-0.2,0-0.4,0-0.6,0c-0.1,0-0.3,0.1-0.4,0.1c-0.4,0.3-0.9,0.2-1.3,0.2
		c-0.2,0-0.4,0-0.4-0.2c0,0-0.1-0.1-0.2-0.1s-0.1,0-0.2,0s-0.3,0-0.4,0c-0.2,0-0.4,0-0.6,0c-0.3,0.1-0.6,0-0.8,0.3l0,0
		c-0.2,0.3-0.6,0.4-1,0.5c-0.1,0-0.3,0-0.4,0.1c-0.5,0.2-0.9,0.5-1.5,0.5l0,0c-0.3,0.3-0.7,0.1-1,0c-0.1,0-0.2-0.1-0.3-0.1
		c-0.3,0-0.6-0.2-0.8-0.4C98.3,11,98.2,11,97.9,11c-0.8,0.1-1.7,0.2-2.5,0.2h-0.1c-0.2,0.1-0.4,0-0.6,0c-0.2-0.1-0.4-0.2-0.7-0.2
		c-0.5-0.1-1-0.1-1.5-0.1c-0.3,0-0.6-0.1-0.8-0.3c-0.4-0.4-0.9-0.3-1.3,0l-0.1,0.1c-0.1,0-0.1,0-0.2-0.1c-0.4-0.4-1-0.4-1.5-0.4
		c-0.5-0.1-1-0.1-1.5-0.3s-1-0.3-1.4-0.5s-0.8-0.3-1.3-0.2c-0.4,0-0.7,0.1-1.1,0.1c-0.2,0-0.5-0.1-0.7-0.1C82.3,9.1,82.1,9,81.8,9
		s-0.6,0-0.9-0.1C80.8,8,80.2,8,79.8,8.2c-0.2,0.1-0.5,0.1-0.7,0.1c-0.3,0-0.6,0-0.8,0.3c0,0.1,0.1,0.1,0.1,0.2
		c-0.2,0-0.3,0-0.4-0.1c-0.3-0.1-0.6-0.3-1-0.3c-0.3,0-0.6,0-0.9-0.1c-0.2-0.1-0.5-0.1-0.7-0.1c-0.6,0-1.1,0-1.7,0.3
		c-0.1,0-0.2,0-0.3,0c-0.3-0.1-0.6,0-0.8,0.1c-0.6,0.4-1.3,0.7-2,0.9c-0.1,0-0.3,0.1-0.4,0c-0.6-0.2-1.3-0.3-1.9-0.4
		c-0.1,0-0.1,0-0.2-0.1c-0.5-0.3-1-0.5-1.6-0.4l0,0c-0.5-0.1-1-0.2-1.5,0.1h-0.1c-0.5,0.1-1,0.3-1.5,0.5c-0.1,0.1-0.3,0.1-0.4,0.1
		c-0.5-0.1-1.1,0-1.6,0.1c-0.7,0.1-1.3,0.4-1.8,0.9c0,0.1-0.1,0.1-0.2,0.1c-0.7,0.2-1.4,0.2-2,0.1c-0.4-0.1-0.7-0.3-1.1-0.4
		c-0.5-0.1-0.7-0.2-0.9-0.4c-0.2-0.1-0.3-0.3-0.5-0.3c-0.1,0-0.2-0.1-0.3-0.1s-0.2-0.1-0.3-0.1s-0.2,0-0.3,0C53.5,9.1,53.2,9,52.8,9
		c-0.7-0.1-1.4-0.1-2.1-0.1c-0.4,0-0.8,0-1.2,0.1c-0.5,0.1-1,0.3-1.5,0.5c-0.4,0.2-0.7,0-1-0.1c-0.3-0.3-0.6-0.4-0.8-0.7
		c-0.1-0.2-0.3-0.2-0.5-0.1c-0.1,0.1-0.2,0.1-0.4,0c-0.1-0.1-0.2-0.1-0.3-0.1c-0.6,0-1.3,0.1-1.9,0.3C43,9,42.8,9,42.7,9
		c-0.1-0.1-0.3-0.1-0.5-0.1c-0.3,0-0.7,0.1-1,0.2c-0.4,0.1-0.6,1.1-0.8,0.8c-0.1-0.2-0.2-0.3-0.4-0.4c-0.4-0.2-0.9-0.3-1.4-0.2
		c-0.1,0-0.3,0-0.4,0c-0.6-0.1-1.2-0.1-1.8,0c-0.3,0-0.6,0.1-0.8,0.3c-0.2,0.1-0.5,0.2-0.7,0.3C34.5,10,34.2,10,34,10.1
		c-0.6,0.3-1.1-0.8-1.6-0.9c-0.5-0.1-1-0.1-1.5,0c-0.3,0.1-0.6,0.1-0.8,0c-0.3-0.2-0.5-0.1-0.8,0.1c-0.3,0.2-0.5,0.3-0.8,0.2
		c-0.3,0-0.6,0.1-0.8,0.2c-0.7,0.5-1.5,0.6-2.3,0.5c-0.6-0.1-1.1,0.2-1.6,0.4c-0.1,0-0.1-0.1-0.2-0.1c-0.4,0-0.8,0-1.2,0
		c-0.2,0-0.4,0-0.6,0.1c-0.5,0.2-1,0.2-1.5,0.1c-0.2-0.1-0.3,0-0.4,0.2c-0.3,0.5-0.5,0.6-1,0.4c-0.2,0.4-0.5,0.4-0.9,0.5
		c-0.5,0.1-1,0-1.5,0.4c-0.3-0.5-0.4-0.6-0.9-0.2c-0.2-0.2-0.5-0.4-0.9-0.3c-0.5,0.1-1.1,0-1.6,0.2c-0.4-0.1-0.8,0-1.2,0.1
		c-0.2,0.1-0.5,0.1-0.7,0.1c-0.1,0-0.3,0.1-0.4,0c-0.6-0.2-1.2-0.1-1.8,0c0,0-0.1,0-0.1,0.1c-0.2,0.2-0.5,0.2-0.7,0.2
		c-0.3,0-0.5,0-0.7,0.3C7.3,12.9,7.2,13,7.1,13c-0.5,0-1,0.1-1.4,0.2c-0.3,0-0.7,0.2-1,0S4.2,13,4,13.2C3.7,13.1,3.5,13,3.2,13
		c-0.2,0-0.4,0-0.7-0.1c-0.2,0-0.4-0.1-0.6-0.1c-0.3,0-0.6-0.7-0.9-0.6c0.3-4.7,0.5-1.4,0.8-6c70.3-4.7,140.8-4.4,211.1,1
		C212.5,11.9,213.3,8.7,212.9,13.3z"/>
</g>
<g id="paper">
	<path class="st1" d="M0,0v5.1v0.6v2.2c0.3-0.1,0.4,0.6,0.6,0.6c0.2,0,0.4,0.1,0.6,0.1S1.6,8.7,2,8.7C2.2,8.8,2.5,8.9,2.8,9
		c0.1-0.1,0.4-0.1,0.6,0c0.3,0.2,0.7,0.1,1,0.1c0.5,0,1-0.1,1.4,0c0.2,0,0.4,0,0.5-0.1c0.3-0.3,0.5-0.3,0.8-0.3s0.5,0.1,0.7-0.1h0.1
		c0.6,0,1.2-0.1,1.8,0.2c0.2,0.1,0.3,0,0.4,0c0.2,0,0.5-0.1,0.7-0.1c0.4-0.1,0.8-0.2,1.2,0c0.5-0.2,1,0,1.6-0.1
		c0.3,0,0.7,0.1,0.9,0.3c0.5-0.4,0.6-0.2,0.9,0.2c0.4-0.3,1-0.2,1.5-0.3c0.4,0,0.7-0.1,0.9-0.4c0.5,0.2,0.7,0.2,1-0.3
		c0.1-0.2,0.2-0.2,0.4-0.2c0.5,0.2,1,0.2,1.6,0c0.2-0.1,0.4,0,0.6,0c0.4,0,0.8,0,1.2,0C22.6,8,22.8,8,22.8,8.1
		c0.5-0.2,1-0.4,1.6-0.3c0.8,0.1,1.6,0.1,2.3-0.3c0.2-0.1,0.5-0.2,0.8-0.2s0.6,0,0.8-0.2c0.2-0.1,0.5-0.2,0.8,0c0.2,0.1,0.5,0,0.8,0
		c0.5-0.1,1,0,1.5,0.1c0.6,0.1,1.1,1.1,1.7,0.9C33.3,8,33.7,8,33.8,8s0.5-0.1,0.7-0.2c0.3-0.2,0.6-0.2,0.9-0.2
		c0.6,0,1.2-0.1,1.8,0.1c0.1,0,0.3,0,0.4,0c0.5-0.1,0.9,0.1,1.4,0.2c0.2,0.1,0.3,0.3,0.4,0.4c0.3,0.4,0.4-0.6,0.8-0.7
		c0.3-0.1,0.7-0.1,1-0.1c0.2,0,0.3,0,0.5,0.1s0.3,0.1,0.5,0c0.6-0.2,1.2-0.3,1.9-0.2c0.1,0,0.2,0,0.3,0.1s0.2,0.1,0.4,0
		s0.4-0.1,0.5,0.1c0.2,0.3,0.5,0.4,0.8,0.5s0.6,0.3,1,0.2c0.5-0.2,1-0.3,1.5-0.4c0.4-0.1,0.8-0.1,1.2,0c0.7,0,1.4,0.1,2.1,0.2
		c0.4,0.1,0.8,0.2,1.1,0.3c0.1,0,0.2,0,0.3,0.1c0.1,0,0.2,0.1,0.3,0.1s0.2,0.1,0.3,0.2c0.2,0,0.4,0.2,0.5,0.3
		c0.2,0.1,0.4,0.3,0.6,0.4c0.4,0.2,0.7,0.4,1.1,0.5c0.7,0.2,1.4,0.2,2.1,0c0.1,0,0.1-0.1,0.2-0.1c0.7-0.9,1.3-1.1,2-1.2
		c0.5-0.1,1-0.2,1.6-0.1c0.1,0,0.3,0,0.4-0.1c0.5-0.2,1-0.4,1.5-0.4H64c0.5-0.3,1-0.2,1.5-0.1l0,0c0.6,0,1.2,0.2,1.6,0.5
		c0.1,0,0.1,0.1,0.2,0.1C68,8.7,68.6,8.8,69.2,9c0.1,0,0.3,0,0.4,0c0.7-0.2,1.4-0.4,2-0.8c0.3-0.1,0.5-0.2,0.8-0.1
		c0.1,0,0.2,0,0.3,0C73.6,8,74.1,8,74.7,8c0.3,0,0.5,0,0.8,0.1s0.6,0.2,0.9,0.1c0.4,0,0.7,0.1,1,0.3c0.1,0.1,0.3,0.1,0.5,0.1
		c0,0-0.1-0.1-0.1-0.2c0.2-0.2,0.5-0.3,0.9-0.2c0.2,0,0.5,0,0.7-0.1c0.5-0.3,1-0.2,1.5,0c0.3,0.1,0.6,0.1,0.9,0.1s0.6,0.1,0.9,0.2
		c0.2,0,0.5,0.1,0.7,0.1c0.4,0,0.8,0,1.1,0c0.4,0,0.9,0.1,1.3,0.3c0.5,0.2,1,0.4,1.5,0.5c0.5,0.2,1,0.2,1.5,0.3s1.1,0.1,1.5,0.5
		c0,0,0.1,0,0.2,0.1l0.1-0.1c0.4-0.3,0.9-0.4,1.3,0c0.2,0.2,0.5,0.3,0.8,0.3c0.5,0,1,0.1,1.5,0.1c0.2,0,0.5,0.1,0.7,0.2
		c0.2,0.1,0.4,0.1,0.6,0h0.1c0.9,0,1.7-0.1,2.6-0.2c0.2,0,0.4,0.1,0.5,0.2c0.2,0.3,0.4,0.4,0.8,0.4c0.1,0,0.2,0.1,0.3,0.1
		c0.3,0.1,0.7,0.3,1,0l0,0c0.6,0,1-0.3,1.5-0.5c0.1-0.1,0.3-0.1,0.4-0.1c0.4-0.1,0.8-0.1,1-0.5l0,0c0.2-0.2,0.5-0.2,0.8-0.3
		c0.2,0,0.4,0,0.6,0.1c0.1,0,0.3,0,0.4,0s0.1,0,0.2,0.1c0.1,0,0.2,0.1,0.2,0.1c0.1,0.2,0.3,0.2,0.4,0.2c0.5,0,0.9,0.1,1.3-0.2
		c0.2,0,0.3,0,0.4-0.1c0.2,0,0.4,0,0.6,0l0,0c0,0,0,0,0.1,0c0.5,0.3,1.2,0.4,1.8,0.5c0.3,0,0.6,0.2,0.9,0.3c0.4,0.2,0.9,0.1,1.3,0.2
		c0.4,0,0.4,0.1,0.5,0.4c0.3,0.2,0.5,0.4,0.7,0.5c0.4,0.2,0.7,0.4,1.1,0.2c0.2-0.1,0.5-0.1,0.7-0.1s0.4,0,0.5,0
		c0.4-0.3,0.9-0.2,1.4-0.1c0.3,0.1,0.5,0.1,0.7,0c0.3-0.1,0.7-0.1,1-0.1c0.1,0,0.2,0,0.3,0c0.3-0.2,0.7-0.1,1-0.1
		c0.4,0,0.8,0,1.2,0.1c0.5,0.1,0.9,0.2,1.4,0.4c0.3,0.1,0.7,0,1,0c0.2,0,0.5-0.1,0.7,0.1c0.1,0.1,0.2,0.1,0.3,0
		c0.3,0,0.6-0.1,0.8-0.2l0,0c0.4-0.4,0.8-0.1,1.2,0c0,0.1,0.1,0.2,0.1,0.3c0.1,0,0.1,0,0.1,0c0.5-0.1,1-0.2,1.5-0.3
		c0.5,0,0.9,0,1.4,0.2c0.7,0.2,1.4,0.3,2.1-0.1c0.1-0.1,0.8,0.2,0.8,0.3c0.1,0.5,0.5,0.4,0.8,0.4s0.6-0.1,0.8-0.1s0.4,0,0.5,0
		c0.2,0.1,0.4,0.1,0.7,0.1c0.8-0.1,1.5-0.1,2.3-0.2c0.3,0,0.6-0.1,0.8-0.3c0.5-0.3,0.9-0.3,1.4-0.1c0.1,0,0.2,0,0.3,0
		c0.5-0.1,0.9-0.1,1.4-0.2c0.1,0,0.3,0,0.4,0c0.3,0,0.7,0,0.8-0.4c0.1-0.2,0.3-0.3,0.5-0.2s0.5,0,0.7-0.1c0.4-0.3,0.8-0.3,1.3-0.4
		c0.4-0.1,0.9-0.2,1.3-0.3c0.1,0,0.2-0.1,0.3,0c0.2,0.2,0.5,0.1,0.7,0.2c0.3,0.1,0.5,0,0.7-0.1c0.3-0.1,0.6-0.2,1-0.3
		c0.2,0,0.4-0.1,0.6-0.2c0.3-0.1,0.6-0.1,0.9-0.2c0.3,0,0.5-0.1,0.8-0.1s0.5,0.1,0.8,0.1c0.4,0,0.8,0.1,1.2,0.1
		c0.2,0,0.3,0.1,0.5,0.1c0.5,0.1,1,0.2,1.5,0.1c0.4-0.1,0.7,0.1,1.1,0.1c0.2,0,0.5,0,0.7,0c0.5-0.1,0.8,0,1.1,0.3c0.3,0,0.5,0,0.7,0
		h0.1c0.3-0.2,0.6-0.1,0.9,0c0.3,0.1,0.5,0,0.8-0.1c0.2-0.1,0.3-0.1,0.5,0.1c0.2,0.2,0.5,0.4,0.8,0.3c0.1,0,0.2,0,0.3,0
		c0.3,0.1,0.6,0.2,1,0.1c0.3,0,0.7,0.1,1,0.1c0.3,0.1,0.7,0.2,1,0.3s0.5,0.2,0.8,0.1c0.3,0,0.6,0.1,0.8,0.1c0.1,0,0.1,0.1,0.2,0.1
		c0.5,0,1,0.2,1.5-0.1c0.1-0.1,0.3,0,0.4,0c0.4,0.1,0.8,0.2,1.1,0.3c0.2,0,0.4-0.1,0.7-0.2c0.1,0,0.2-0.1,0.3-0.1
		c0.4,0,0.9,0.1,1.3,0.1c0.3,0,0.6-0.1,0.9-0.1c0.2,0,0.4-0.1,0.5,0c0.5,0.1,0.9,0,1.3-0.2c0.2-0.1,0.4-0.1,0.7,0
		c0.1,0.1,0.3,0.1,0.4,0.1c0.5-0.1,1,0.1,1.4-0.3c0,0,0.1-0.1,0.1,0c0.4,0.2,0.8-0.1,1.2-0.1c0.5,0,0.9,0.2,1.3,0.2
		c0.2,0,0.3,0.1,0.5,0.1c0.3,0.1,0.7,0.1,1,0.2c0.4,0.2,0.7,0.2,1.1,0.3c0.3,0,0.7,0.1,1,0.1c0.1,0,0.1,0,0.2-0.1
		c0.5-0.4,1-0.4,1.6-0.3c0.4,0.1,0.7,0,1-0.2s0.7-0.2,1.1-0.1c0.2,0.1,0.5,0.1,0.7,0c0.3-0.1,0.6-0.1,0.9-0.2
		c0.4-0.2,0.8-0.1,1.2-0.2c0.5-0.1,0.9-0.3,1.3-0.5c0.2-0.1,0.4-0.2,0.6-0.1c0.1,0,0.1,0,0.2,0c0.5,0,0.5,0,0.9,0.4
		c0.3-0.3,0.7-0.4,1.1-0.3c0.1,0,0.3,0,0.3-0.1c0.2-0.2,0.4-0.2,0.6-0.3c0.2,0,0.4-0.2,0.6-0.2c0.4,0,0.7,0,1.1,0.1
		c0.2,0.1,0.4,0.1,0.6,0c0.3-0.1,0.7-0.2,1.1-0.2c0.3,0,0.4-0.1,0.6-0.3c0.1-0.1,0.2-0.2,0.4-0.2c0.3,0.1,0.6,0,0.8-0.1
		C202,9,202.5,9.1,203,9c0.5-0.2,1.1,0.1,1.6,0c0.3,0,0.6-0.1,0.8-0.2c0.3-0.2,0.5,0,0.7,0.1c0.2,0.2,0.4,0.2,0.6,0.3
		c0.2,0,0.3,0.1,0.5,0.2c0.1,0,0.2,0.1,0.3,0.1c0.4-0.1,0.8,0.1,1.2-0.1h0.1c0.5,0.1,1.9,0.1,2.4-0.1c0.2-0.1,0.4,0,0.5,0
		c0.3,0,0.8,0,1.1,0c0.1,0,0.1,0,0.2,0c0.3,0.1,0.7,0,1,0.1V0H0z"/>
</g>
</svg>
