<?xml version="1.0" encoding="utf-8"?>
<!-- Generator: Adobe Illustrator 24.0.3, SVG Export Plug-In . SVG Version: 6.00 Build 0)  -->
<!DOCTYPE svg PUBLIC "-//W3C//DTD SVG 1.1//EN" "http://www.w3.org/Graphics/SVG/1.1/DTD/svg11.dtd" [
	<!ENTITY ns_extend "http://ns.adobe.com/Extensibility/1.0/">
	<!ENTITY ns_ai "http://ns.adobe.com/AdobeIllustrator/10.0/">
	<!ENTITY ns_graphs "http://ns.adobe.com/Graphs/1.0/">
	<!ENTITY ns_vars "http://ns.adobe.com/Variables/1.0/">
	<!ENTITY ns_imrep "http://ns.adobe.com/ImageReplacement/1.0/">
	<!ENTITY ns_sfw "http://ns.adobe.com/SaveForWeb/1.0/">
	<!ENTITY ns_custom "http://ns.adobe.com/GenericCustomNamespace/1.0/">
	<!ENTITY ns_adobe_xpath "http://ns.adobe.com/XPath/1.0/">
]>
<svg version="1.1" id="Ebene_1" xmlns:x="&ns_extend;" xmlns:i="&ns_ai;" xmlns:graph="&ns_graphs;"
	 xmlns="http://www.w3.org/2000/svg" xmlns:xlink="http://www.w3.org/1999/xlink" x="0px" y="0px" width="286.4px" height="43.1px"
	 viewBox="0 0 286.4 43.1" style="enable-background:new 0 0 286.4 43.1;" xml:space="preserve">
<style type="text/css">
	.st0{fill:#040404;}
	.st1{fill:#FFDF37;}
</style>
<metadata>
	<sfw  xmlns="&ns_sfw;">
		<slices></slices>
		<sliceSourceBounds  bottomLeftOrigin="true" height="43.1" width="286.4" x="-4.3" y="-4.3"></sliceSourceBounds>
	</sfw>
</metadata>
<polygon class="st0" points="193.4,43.1 173.1,22.8 153.7,42.2 134.4,22.9 114.6,42.7 95.7,23.7 77.2,42.2 59.5,24.7 41.5,42.7 
	22.9,24 8.5,38.4 0,29.9 23,7 41.5,25.7 59.4,7.7 77.1,25.3 95.8,6.7 114.7,25.7 134.4,5.9 153.7,25.2 173.1,5.8 193.4,26.1 
	213.7,5.8 233.9,25.9 255.5,4.3 282.1,30.8 273.6,39.3 255.5,21.3 234,42.8 213.8,22.7 "/>
<polygon class="st1" points="197.7,38.8 177.4,18.5 158,37.9 138.7,18.6 118.9,38.4 100,19.4 81.4,38 63.7,20.4 45.8,38.4 
	27.2,19.7 12.8,34.1 4.3,25.6 27.2,2.7 45.8,21.4 63.7,3.4 81.4,21 100,2.4 118.9,21.4 138.7,1.6 158,20.9 177.4,1.5 197.7,21.8 
	218,1.5 238.2,21.6 259.8,0 286.4,26.5 277.9,35 259.8,17 238.2,38.6 218,18.5 "/>
</svg>
