<?xml version="1.0" encoding="utf-8"?>
<!-- Generator: Adobe Illustrator 24.0.3, SVG Export Plug-In . SVG Version: 6.00 Build 0)  -->
<!DOCTYPE svg PUBLIC "-//W3C//DTD SVG 1.1//EN" "http://www.w3.org/Graphics/SVG/1.1/DTD/svg11.dtd" [
	<!ENTITY ns_extend "http://ns.adobe.com/Extensibility/1.0/">
	<!ENTITY ns_ai "http://ns.adobe.com/AdobeIllustrator/10.0/">
	<!ENTITY ns_graphs "http://ns.adobe.com/Graphs/1.0/">
	<!ENTITY ns_vars "http://ns.adobe.com/Variables/1.0/">
	<!ENTITY ns_imrep "http://ns.adobe.com/ImageReplacement/1.0/">
	<!ENTITY ns_sfw "http://ns.adobe.com/SaveForWeb/1.0/">
	<!ENTITY ns_custom "http://ns.adobe.com/GenericCustomNamespace/1.0/">
	<!ENTITY ns_adobe_xpath "http://ns.adobe.com/XPath/1.0/">
]>
<svg version="1.1" id="Ebene_1" xmlns:x="&ns_extend;" xmlns:i="&ns_ai;" xmlns:graph="&ns_graphs;"
	 xmlns="http://www.w3.org/2000/svg" xmlns:xlink="http://www.w3.org/1999/xlink" x="0px" y="0px" width="39.5px" height="92.4px"
	 viewBox="0 0 39.5 92.4" style="enable-background:new 0 0 39.5 92.4;" xml:space="preserve">
<metadata>
	<sfw  xmlns="&ns_sfw;">
		<slices></slices>
		<sliceSourceBounds  bottomLeftOrigin="true" height="92.4" width="39.5" x="279.9" y="-467.3"></sliceSourceBounds>
	</sfw>
</metadata>
<path d="M24.4,52.7c-3.1,0-6,1.2-8.4,3.2c-1.3-6.5-1.3-12.9,0-19.4c2.4,2,5.2,3.2,8.4,3.2c8.5,0,15.1-8.7,15.1-19.9
	C39.5,8.7,32.9,0,24.4,0c-4.4,0-8.2,2.3-11,6.1c-0.7,0.5-1.2,1.2-1.7,1.9c-15.6,25.3-15.6,51.1,0,76.4c0.5,0.7,1,1.4,1.7,1.9
	c2.7,3.8,6.6,6.1,11,6.1c8.5,0,15.1-8.7,15.1-19.9C39.5,61.4,32.9,52.7,24.4,52.7z"/>
</svg>
